<?xml version="1.0" encoding="utf-8"?>
<!-- Generator: Adobe Illustrator 14.0.0, SVG Export Plug-In . SVG Version: 6.00 Build 43363)  -->
<!DOCTYPE svg PUBLIC "-//W3C//DTD SVG 1.1//EN" "http://www.w3.org/Graphics/SVG/1.1/DTD/svg11.dtd">
<svg version="1.1" id="Layer_1" xmlns="http://www.w3.org/2000/svg" xmlns:xlink="http://www.w3.org/1999/xlink" x="0px" y="0px"
	 width="288px" height="528px" viewBox="0 0 288 528" enable-background="new 0 0 288 528" xml:space="preserve">
<g>
	<g>
		<radialGradient id="SVGID_1_" cx="149.5" cy="77.5" r="56" gradientUnits="userSpaceOnUse">
			<stop  offset="0" style="stop-color:#4D4D4D"/>
			<stop  offset="1" style="stop-color:#999999"/>
		</radialGradient>
		<path fill="url(#SVGID_1_)" d="M149.5,133.5c-30.879,0-56-25.121-56-56s25.121-56,56-56s56,25.121,56,56
			S180.379,133.5,149.5,133.5L149.5,133.5z"/>
		<path fill="#CCCCCC" d="M149.5,23c30.1,0,54.5,24.4,54.5,54.5S179.6,132,149.5,132S95,107.6,95,77.5S119.4,23,149.5,23 M149.5,20
			C117.795,20,92,45.795,92,77.5s25.795,57.5,57.5,57.5S207,109.205,207,77.5S181.205,20,149.5,20L149.5,20z"/>
	</g>
	<g>
		<radialGradient id="SVGID_2_" cx="149.5" cy="77.5" r="35.7891" gradientUnits="userSpaceOnUse">
			<stop  offset="0" style="stop-color:#FFFFFF"/>
			<stop  offset="1" style="stop-color:#999999"/>
		</radialGradient>
		<path fill="url(#SVGID_2_)" d="M149.5,113.289c-19.734,0-35.789-16.055-35.789-35.789s16.055-35.789,35.789-35.789
			s35.789,16.055,35.789,35.789S169.234,113.289,149.5,113.289L149.5,113.289z"/>
		<path fill="#666666" d="M149.5,43.211c18.907,0,34.289,15.382,34.289,34.289s-15.382,34.289-34.289,34.289
			S115.211,96.407,115.211,77.5S130.593,43.211,149.5,43.211 M149.5,40.211c-20.594,0-37.289,16.695-37.289,37.289
			s16.695,37.289,37.289,37.289s37.289-16.695,37.289-37.289S170.094,40.211,149.5,40.211L149.5,40.211z"/>
	</g>
	<g>
		<g>
			<polygon fill="#4D4D4D" points="149.5,31.09 142.592,37.998 156.408,37.998 			"/>
			<polygon fill="#4D4D4D" points="156.408,117.002 142.592,117.002 149.5,123.91 			"/>
			<polygon fill="#4D4D4D" points="195.91,77.5 189.002,70.592 189.002,84.408 			"/>
			<polygon fill="#4D4D4D" points="109.998,84.408 109.998,70.592 103.09,77.5 			"/>
		</g>
		<g>
			<polygon fill="#666666" points="149.5,25.629 141.779,33.35 157.221,33.35 			"/>
			<polygon fill="#666666" points="157.221,121.65 141.779,121.65 149.5,129.371 			"/>
			<polygon fill="#666666" points="201.371,77.5 193.65,69.779 193.65,85.221 			"/>
			<polygon fill="#666666" points="105.35,85.221 105.35,69.779 97.629,77.5 			"/>
		</g>
	</g>
</g>
<g>
	<g>
		<radialGradient id="SVGID_3_" cx="77.5" cy="450.5" r="56" gradientUnits="userSpaceOnUse">
			<stop  offset="0" style="stop-color:#4D4D4D"/>
			<stop  offset="1" style="stop-color:#999999"/>
		</radialGradient>
		<path fill="url(#SVGID_3_)" d="M77.5,506.5c-30.879,0-56-25.121-56-56s25.122-56,56-56c30.878,0,56,25.121,56,56
			S108.378,506.5,77.5,506.5L77.5,506.5z"/>
		<path fill="#CCCCCC" d="M77.5,396c30.1,0,54.5,24.4,54.5,54.5S107.6,505,77.5,505C47.4,505,23,480.6,23,450.5S47.4,396,77.5,396
			 M77.5,393C45.794,393,20,418.795,20,450.5S45.794,508,77.5,508c31.705,0,57.5-25.795,57.5-57.5S109.206,393,77.5,393L77.5,393z"
			/>
	</g>
	<g>
		<g>
			<polygon fill="#4D4D4D" points="77.5,404.09 70.592,410.998 84.408,410.998 			"/>
			<polygon fill="#4D4D4D" points="84.408,490.002 70.592,490.002 77.5,496.91 			"/>
			<polygon fill="#4D4D4D" points="123.911,450.5 117.002,443.592 117.002,457.408 			"/>
			<polygon fill="#4D4D4D" points="37.998,457.408 37.998,443.592 31.09,450.5 			"/>
		</g>
		<g>
			<polygon fill="#666666" points="77.5,398.629 69.78,406.35 85.22,406.35 			"/>
			<polygon fill="#666666" points="85.22,494.65 69.78,494.65 77.5,502.371 			"/>
			<polygon fill="#666666" points="129.37,450.5 121.651,442.779 121.651,458.221 			"/>
			<polygon fill="#666666" points="33.35,458.221 33.35,442.779 25.629,450.5 			"/>
		</g>
	</g>
</g>
<g>
	<g>
		<radialGradient id="SVGID_4_" cx="79.5005" cy="197.5" r="56.0002" gradientUnits="userSpaceOnUse">
			<stop  offset="0" style="stop-color:#4D4D4D"/>
			<stop  offset="1" style="stop-color:#999999"/>
		</radialGradient>
		<path fill="url(#SVGID_4_)" d="M79.5,253.5c-30.879,0-56-25.121-56-56s25.121-56,56-56s56.001,25.121,56.001,56
			S110.379,253.5,79.5,253.5L79.5,253.5z"/>
		<path fill="#CCCCCC" d="M79.5,143c30.1,0,54.5,24.4,54.5,54.5S109.6,252,79.5,252S25,227.6,25,197.5S49.4,143,79.5,143 M79.5,140
			C47.795,140,22,165.795,22,197.5S47.795,255,79.5,255s57.501-25.795,57.501-57.5S111.205,140,79.5,140L79.5,140z"/>
	</g>
	<g>
		<g>
			<polygon fill="#4D4D4D" points="79.5,151.09 72.592,157.998 86.408,157.998 			"/>
			<polygon fill="#4D4D4D" points="86.408,237.002 72.592,237.002 79.5,243.91 			"/>
			<polygon fill="#4D4D4D" points="125.91,197.5 119.002,190.592 119.002,204.408 			"/>
			<polygon fill="#4D4D4D" points="39.998,204.408 39.998,190.592 33.09,197.5 			"/>
		</g>
		<g>
			<polygon fill="#666666" points="79.5,145.629 71.779,153.35 87.221,153.35 			"/>
			<polygon fill="#666666" points="87.221,241.65 71.779,241.65 79.5,249.371 			"/>
			<polygon fill="#666666" points="131.369,197.5 123.65,189.779 123.65,205.221 			"/>
			<polygon fill="#666666" points="35.35,205.221 35.35,189.779 27.629,197.5 			"/>
		</g>
	</g>
</g>
<g>
	<radialGradient id="SVGID_5_" cx="214.71" cy="454.7109" r="35.7896" gradientUnits="userSpaceOnUse">
		<stop  offset="0" style="stop-color:#FFFFFF"/>
		<stop  offset="1" style="stop-color:#999999"/>
	</radialGradient>
	<path fill="url(#SVGID_5_)" d="M214.709,490.5c-19.734,0-35.789-16.055-35.789-35.789s16.055-35.789,35.789-35.789
		s35.791,16.055,35.791,35.789S234.443,490.5,214.709,490.5L214.709,490.5z"/>
	<path fill="#666666" d="M214.709,420.422c18.908,0,34.291,15.382,34.291,34.289S233.617,489,214.709,489
		c-18.906,0-34.289-15.382-34.289-34.289S195.803,420.422,214.709,420.422 M214.709,417.422c-20.594,0-37.289,16.695-37.289,37.289
		S194.115,492,214.709,492C235.305,492,252,475.305,252,454.711S235.305,417.422,214.709,417.422L214.709,417.422z"/>
</g>
<g>
	<radialGradient id="SVGID_6_" cx="95.9854" cy="197.5" r="35.7896" gradientUnits="userSpaceOnUse">
		<stop  offset="0" style="stop-color:#FFFFFF"/>
		<stop  offset="1" style="stop-color:#999999"/>
	</radialGradient>
	<path fill="url(#SVGID_6_)" d="M95.984,233.289c-19.734,0-35.789-16.055-35.789-35.789s16.055-35.789,35.789-35.789
		s35.791,16.055,35.791,35.789S115.719,233.289,95.984,233.289L95.984,233.289z"/>
	<path fill="#666666" d="M95.984,163.211c18.908,0,34.291,15.382,34.291,34.289s-15.383,34.289-34.291,34.289
		c-18.906,0-34.289-15.382-34.289-34.289S77.078,163.211,95.984,163.211 M95.984,160.211c-20.594,0-37.289,16.695-37.289,37.289
		s16.695,37.289,37.289,37.289c20.596,0,37.291-16.695,37.291-37.289S116.58,160.211,95.984,160.211L95.984,160.211z"/>
</g>
<g>
	<g>
		<radialGradient id="SVGID_7_" cx="77.5" cy="329.5" r="56" gradientUnits="userSpaceOnUse">
			<stop  offset="0" style="stop-color:#4D4D4D"/>
			<stop  offset="1" style="stop-color:#999999"/>
		</radialGradient>
		<path fill="url(#SVGID_7_)" d="M77.5,385.5c-30.879,0-56-25.122-56-56.001c0-30.878,25.121-56,56-56s56,25.122,56,56
			C133.5,360.378,108.379,385.5,77.5,385.5L77.5,385.5z"/>
		<path fill="#CCCCCC" d="M77.5,274.999c30.1,0,54.5,24.4,54.5,54.5C132,359.6,107.6,384,77.5,384S23,359.6,23,329.499
			C23,299.399,47.4,274.999,77.5,274.999 M77.5,271.999c-31.706,0-57.5,25.794-57.5,57.5S45.794,387,77.5,387
			s57.5-25.795,57.5-57.501S109.206,271.999,77.5,271.999L77.5,271.999z"/>
	</g>
	<g>
		<g>
			<polygon fill="#4D4D4D" points="123.91,329.499 117.002,322.592 117.002,336.406 			"/>
			<polygon fill="#4D4D4D" points="37.998,336.406 37.998,322.592 31.09,329.499 			"/>
			<polygon fill="#4D4D4D" points="77.5,375.91 84.408,369.002 70.592,369.002 			"/>
			<polygon fill="#4D4D4D" points="70.592,289.997 84.408,289.997 77.5,283.09 			"/>
		</g>
		<g>
			<polygon fill="#666666" points="129.371,329.499 121.65,321.779 121.65,337.219 			"/>
			<polygon fill="#666666" points="33.35,337.219 33.35,321.779 25.629,329.499 			"/>
			<polygon fill="#666666" points="77.5,381.369 85.221,373.65 69.779,373.65 			"/>
			<polygon fill="#666666" points="69.779,285.349 85.221,285.349 77.5,277.629 			"/>
		</g>
	</g>
</g>
<g>
	<radialGradient id="SVGID_8_" cx="77.5" cy="345.9834" r="35.7896" gradientUnits="userSpaceOnUse">
		<stop  offset="0" style="stop-color:#FFFFFF"/>
		<stop  offset="1" style="stop-color:#999999"/>
	</radialGradient>
	<path fill="url(#SVGID_8_)" d="M77.5,381.773c-19.734,0-35.789-16.056-35.789-35.791c0-19.734,16.055-35.789,35.789-35.789
		s35.789,16.055,35.789,35.789C113.289,365.718,97.234,381.773,77.5,381.773L77.5,381.773z"/>
	<path fill="#666666" d="M77.5,311.693c18.907,0,34.289,15.382,34.289,34.289c0,18.908-15.382,34.291-34.289,34.291
		s-34.289-15.383-34.289-34.291C43.211,327.075,58.593,311.693,77.5,311.693 M77.5,308.693c-20.594,0-37.289,16.695-37.289,37.289
		c0,20.596,16.695,37.291,37.289,37.291s37.289-16.695,37.289-37.291C114.789,325.389,98.094,308.693,77.5,308.693L77.5,308.693z"/>
</g>
<g>
	<g>
		<radialGradient id="SVGID_9_" cx="210.5" cy="197.5" r="56" gradientUnits="userSpaceOnUse">
			<stop  offset="0" style="stop-color:#4D4D4D"/>
			<stop  offset="1" style="stop-color:#999999"/>
		</radialGradient>
		<path fill="url(#SVGID_9_)" d="M210.5,253.5c-30.879,0-56.001-25.122-56.001-56c0-30.879,25.122-56,56.001-56s56,25.122,56,56
			C266.5,228.378,241.379,253.5,210.5,253.5L210.5,253.5z"/>
		<path fill="#CCCCCC" d="M210.5,143c30.1,0,54.5,24.4,54.5,54.5c0,30.1-24.4,54.5-54.5,54.5c-30.101,0-54.501-24.4-54.501-54.5
			C155.999,167.4,180.399,143,210.5,143 M210.5,140c-31.706,0-57.501,25.794-57.501,57.5c0,31.705,25.795,57.5,57.501,57.5
			c31.705,0,57.5-25.795,57.5-57.5C268,165.794,242.205,140,210.5,140L210.5,140z"/>
	</g>
	<g>
		<g>
			<polygon fill="#4D4D4D" points="210.5,243.91 217.407,237.002 203.593,237.002 			"/>
			<polygon fill="#4D4D4D" points="203.593,157.998 217.407,157.998 210.5,151.089 			"/>
			<polygon fill="#4D4D4D" points="164.089,197.5 170.997,204.408 170.997,190.592 			"/>
			<polygon fill="#4D4D4D" points="250.002,190.592 250.002,204.408 256.909,197.5 			"/>
		</g>
		<g>
			<polygon fill="#666666" points="210.5,249.371 218.22,241.65 202.78,241.65 			"/>
			<polygon fill="#666666" points="202.78,153.349 218.22,153.349 210.5,145.628 			"/>
			<polygon fill="#666666" points="158.63,197.5 166.349,205.221 166.349,189.779 			"/>
			<polygon fill="#666666" points="254.65,189.779 254.65,205.221 262.37,197.5 			"/>
		</g>
	</g>
</g>
<g>
	<radialGradient id="SVGID_10_" cx="194.0156" cy="197.5" r="35.7896" gradientUnits="userSpaceOnUse">
		<stop  offset="0" style="stop-color:#FFFFFF"/>
		<stop  offset="1" style="stop-color:#999999"/>
	</radialGradient>
	<path fill="url(#SVGID_10_)" d="M194.017,233.289c-19.735,0-35.791-16.055-35.791-35.789s16.056-35.79,35.791-35.79
		c19.734,0,35.789,16.055,35.789,35.79S213.751,233.289,194.017,233.289L194.017,233.289z"/>
	<path fill="#666666" d="M194.017,163.21c18.907,0,34.289,15.381,34.289,34.29c0,18.906-15.382,34.289-34.289,34.289
		c-18.908,0-34.291-15.383-34.291-34.289C159.726,178.592,175.108,163.21,194.017,163.21 M194.017,160.21
		c-20.596,0-37.291,16.696-37.291,37.29s16.695,37.289,37.291,37.289c20.594,0,37.289-16.695,37.289-37.289
		S214.61,160.21,194.017,160.21L194.017,160.21z"/>
</g>
<g>
	<g>
		<radialGradient id="SVGID_11_" cx="209.5" cy="329.5" r="56" gradientUnits="userSpaceOnUse">
			<stop  offset="0" style="stop-color:#4D4D4D"/>
			<stop  offset="1" style="stop-color:#999999"/>
		</radialGradient>
		<path fill="url(#SVGID_11_)" d="M209.499,385.5c-30.878,0-56-25.121-56-56s25.122-56.001,56-56.001
			c30.879,0,56.001,25.122,56.001,56.001S240.378,385.5,209.499,385.5L209.499,385.5z"/>
		<path fill="#CCCCCC" d="M209.499,274.999c30.101,0,54.501,24.4,54.501,54.501c0,30.1-24.4,54.5-54.501,54.5
			c-30.1,0-54.5-24.4-54.5-54.5C154.999,299.399,179.399,274.999,209.499,274.999 M209.499,271.999
			c-31.705,0-57.5,25.795-57.5,57.501c0,31.705,25.795,57.5,57.5,57.5C241.205,387,267,361.205,267,329.5
			C267,297.794,241.205,271.999,209.499,271.999L209.499,271.999z"/>
	</g>
	<g>
		<g>
			<polygon fill="#4D4D4D" points="163.089,329.5 169.997,336.407 169.997,322.593 			"/>
			<polygon fill="#4D4D4D" points="249.002,322.593 249.002,336.407 255.91,329.5 			"/>
			<polygon fill="#4D4D4D" points="209.499,283.089 202.591,289.997 216.408,289.997 			"/>
			<polygon fill="#4D4D4D" points="216.408,369.002 202.591,369.002 209.499,375.909 			"/>
		</g>
		<g>
			<polygon fill="#666666" points="157.628,329.5 165.349,337.22 165.349,321.78 			"/>
			<polygon fill="#666666" points="253.65,321.78 253.65,337.22 261.371,329.5 			"/>
			<polygon fill="#666666" points="209.499,277.63 201.778,285.349 217.221,285.349 			"/>
			<polygon fill="#666666" points="217.221,373.65 201.778,373.65 209.499,381.37 			"/>
		</g>
	</g>
</g>
<g>
	<radialGradient id="SVGID_12_" cx="209.5" cy="313.0156" r="35.7896" gradientUnits="userSpaceOnUse">
		<stop  offset="0" style="stop-color:#FFFFFF"/>
		<stop  offset="1" style="stop-color:#999999"/>
	</radialGradient>
	<path fill="url(#SVGID_12_)" d="M209.499,348.806c-19.734,0-35.789-16.055-35.789-35.789c0-19.735,16.055-35.791,35.789-35.791
		c19.735,0,35.79,16.056,35.79,35.791C245.289,332.751,229.234,348.806,209.499,348.806L209.499,348.806z"/>
	<path fill="#666666" d="M209.499,278.726c18.908,0,34.29,15.383,34.29,34.291c0,18.907-15.382,34.289-34.29,34.289
		c-18.906,0-34.289-15.382-34.289-34.289C175.21,294.108,190.593,278.726,209.499,278.726 M209.499,275.726
		c-20.594,0-37.289,16.695-37.289,37.291c0,20.594,16.695,37.289,37.289,37.289c20.595,0,37.29-16.695,37.29-37.289
		C246.789,292.421,230.094,275.726,209.499,275.726L209.499,275.726z"/>
</g>
</svg>
