<?xml version="1.0" encoding="utf-8"?>
<!-- Generator: Adobe Illustrator 14.0.0, SVG Export Plug-In . SVG Version: 6.00 Build 43363)  -->
<!DOCTYPE svg PUBLIC "-//W3C//DTD SVG 1.1//EN" "http://www.w3.org/Graphics/SVG/1.1/DTD/svg11.dtd">
<svg version="1.1" id="Layer_1" xmlns="http://www.w3.org/2000/svg" xmlns:xlink="http://www.w3.org/1999/xlink" x="0px" y="0px"
	 width="1289.936px" height="500px" viewBox="0 0 1289.936 500" enable-background="new 0 0 1289.936 500" xml:space="preserve">
<g>
	<path id="rect4033-6" opacity="0.817" fill="#6A0909" d="M194.816,60.294h33.166c4.579,0,8.292,3.712,8.292,8.292v66.333
		c0,4.579-3.713,8.292-8.292,8.292h-33.166c-4.579,0-8.292-3.713-8.292-8.292V68.586C186.524,64.007,190.237,60.294,194.816,60.294z
		"/>
	<path id="use4029-8" opacity="0.817" fill="#C7C9CE" d="M172.38,143.21l5.853-49.749h66.332l5.854,49.749L377.23,388.401
		c0,29.531-21.753,53.305-48.773,53.305H94.341c-27.02,0-48.773-23.773-48.773-53.305L172.38,143.21z"/>
	<path fill="#C1272D" d="M244.565,176.376h-66.332L70.443,367.082c0,2.121,0.208,4.186,0.512,6.219
		c2.99,19.987,20.098,35.238,40.946,35.238h198.997c20.847,0,37.956-15.251,40.948-35.238c0.304-2.033,0.51-4.098,0.51-6.219
		L244.565,176.376z"/>
	<path opacity="0.2" d="M111.899,408.539h198.997c20.847,0,37.956-15.251,40.948-35.238H70.954
		C73.944,393.288,91.051,408.539,111.899,408.539z"/>
	<path opacity="0.4" fill="#FFFFFF" d="M316.213,352.248c5.591,11.708,3.623,24.299-4.389,28.129l0,0
		c-8.017,3.83-19.045-2.562-24.636-14.267L223.48,232.668c-5.591-11.708-3.624-24.3,4.393-28.126l0,0
		c8.013-3.83,19.045,2.561,24.636,14.266L316.213,352.248z"/>
</g>
<g>
	<path id="rect4033-6_1_" opacity="0.817" fill="#6A0909" d="M621.875,59.294h33.166c4.579,0,8.292,3.712,8.292,8.292v66.333
		c0,4.579-3.713,8.292-8.292,8.292h-33.166c-4.579,0-8.291-3.713-8.291-8.292V67.586C613.584,63.007,617.296,59.294,621.875,59.294z
		"/>
	<path id="use4029-8_1_" opacity="0.817" fill="#C7C9CE" d="M599.44,142.21l5.853-49.749h66.332l5.854,49.749L804.29,387.401
		c0,29.531-21.753,53.305-48.773,53.305H521.401c-27.02,0-48.773-23.773-48.773-53.305L599.44,142.21z"/>
	<path fill="#93278F" d="M671.625,175.376h-66.332l-107.79,190.706c0,2.121,0.208,4.186,0.512,6.219
		c2.99,19.987,20.098,35.238,40.945,35.238h198.997c20.847,0,37.956-15.251,40.948-35.238c0.304-2.033,0.51-4.098,0.51-6.219
		L671.625,175.376z"/>
	<path opacity="0.2" d="M538.959,407.539h198.996c20.847,0,37.956-15.251,40.948-35.238H498.013
		C501.003,392.288,518.111,407.539,538.959,407.539z"/>
	<path opacity="0.4" fill="#FFFFFF" d="M743.273,351.248c5.591,11.708,3.623,24.299-4.389,28.129l0,0
		c-8.017,3.83-19.045-2.562-24.636-14.267L650.54,231.668c-5.591-11.708-3.624-24.3,4.393-28.126l0,0
		c8.013-3.83,19.045,2.561,24.636,14.266L743.273,351.248z"/>
</g>
<g>
	<path id="rect4033-6_2_" opacity="0.817" fill="#6A0909" d="M1048.935,59.294h33.166c4.579,0,8.292,3.712,8.292,8.292v66.333
		c0,4.579-3.713,8.292-8.292,8.292h-33.166c-4.579,0-8.291-3.713-8.291-8.292V67.586
		C1040.644,63.007,1044.356,59.294,1048.935,59.294z"/>
	<path id="use4029-8_2_" opacity="0.817" fill="#C7C9CE" d="M1026.5,142.21l5.853-49.749h66.332l5.854,49.749l126.811,245.191
		c0,29.531-21.753,53.305-48.773,53.305H948.46c-27.02,0-48.773-23.773-48.773-53.305L1026.5,142.21z"/>
	<path fill="#0071BC" d="M1098.684,175.376h-66.332l-107.79,190.706c0,2.121,0.208,4.186,0.512,6.219
		c2.99,19.987,20.098,35.238,40.945,35.238h198.997c20.847,0,37.956-15.251,40.948-35.238c0.304-2.033,0.51-4.098,0.51-6.219
		L1098.684,175.376z"/>
	<path opacity="0.2" d="M966.019,407.539h198.996c20.847,0,37.956-15.251,40.948-35.238H925.073
		C928.063,392.288,945.17,407.539,966.019,407.539z"/>
	<path opacity="0.4" fill="#FFFFFF" d="M1170.333,351.248c5.591,11.708,3.623,24.299-4.389,28.129l0,0
		c-8.017,3.83-19.045-2.562-24.636-14.267l-63.709-133.442c-5.591-11.708-3.624-24.3,4.393-28.126l0,0
		c8.013-3.83,19.045,2.561,24.636,14.266L1170.333,351.248z"/>
</g>
</svg>
