<?xml version="1.0" encoding="utf-8"?>
<!-- Generator: Adobe Illustrator 14.0.0, SVG Export Plug-In . SVG Version: 6.00 Build 43363)  -->
<!DOCTYPE svg PUBLIC "-//W3C//DTD SVG 1.1//EN" "http://www.w3.org/Graphics/SVG/1.1/DTD/svg11.dtd">
<svg version="1.1"
	 id="svg2" xmlns:rdf="http://www.w3.org/1999/02/22-rdf-syntax-ns#" xmlns:svg="http://www.w3.org/2000/svg" xmlns:inkscape="http://www.inkscape.org/namespaces/inkscape" xmlns:dc="http://purl.org/dc/elements/1.1/" xmlns:sodipodi="http://sodipodi.sourceforge.net/DTD/sodipodi-0.dtd" xmlns:cc="http://creativecommons.org/ns#" inkscape:version="0.48.1 r9760" sodipodi:docname="treasures.svg"
	 xmlns="http://www.w3.org/2000/svg" xmlns:xlink="http://www.w3.org/1999/xlink" x="0px" y="0px" width="512px" height="256px"
	 viewBox="0 0 512 256" enable-background="new 0 0 512 256" xml:space="preserve">
<path id="path3828_1_" fill="#5F3A05" d="M64,26c-22.723,0-41.156,18.434-41.156,41.156S41.277,108.281,64,108.281
	s41.156-18.402,41.156-41.125S86.723,26,64,26z M48,51h32v32H48V51z"/>
<sodipodi:namedview  id="base" inkscape:window-maximized="1" inkscape:zoom="1.4142136" pagecolor="#ffffff" inkscape:pageshadow="2" bordercolor="#666666" inkscape:pageopacity="0.0" borderopacity="1.0" showgrid="true" showguides="true" inkscape:current-layer="layer1" inkscape:window-width="1280" inkscape:window-x="0" inkscape:window-y="24" inkscape:cy="71.674014" inkscape:window-height="776" inkscape:guide-bbox="true" inkscape:document-units="px" inkscape:cx="156.47109">
	
		<inkscape:grid  type="xygrid" id="grid3050" snapvisiblegridlinesonly="true" empspacing="8" visible="true" enabled="true" spacingy="1px">
		</inkscape:grid>
	<sodipodi:guide  id="guide3820" orientation="0,1" position="256,128"></sodipodi:guide>
	<sodipodi:guide  id="guide3822" orientation="1,0" position="256,128"></sodipodi:guide>
	<sodipodi:guide  id="guide3824" orientation="1,0" position="128,128"></sodipodi:guide>
	<sodipodi:guide  id="guide3851" orientation="1,0" position="384,128"></sodipodi:guide>
</sodipodi:namedview>
<path id="path3828" fill="#D0700C" stroke="#5F3A05" stroke-width="1.7143" stroke-linecap="round" d="M64,23
	c-22.723,0-41.156,18.434-41.156,41.156S41.277,105.281,64,105.281s41.156-18.402,41.156-41.125S86.723,23,64,23z M48,48h32v32H48
	V48z"/>
<path id="path3828-0_1_" inkscape:connector-curvature="0" fill="#3A3A3A" d="M192,26c-22.723,0-41.156,18.434-41.156,41.156
	s18.434,41.125,41.156,41.125s41.156-18.402,41.156-41.125S214.723,26,192,26z M176,51h32v32h-32V51z"/>
<path id="path3828-0" inkscape:connector-curvature="0" fill="#7F745D" stroke="#3A3A3A" stroke-width="1.7143" stroke-linecap="round" d="
	M192,23c-22.723,0-41.156,18.434-41.156,41.156s18.434,41.125,41.156,41.125s41.156-18.402,41.156-41.125S214.723,23,192,23z
	 M176,48h32v32h-32V48z"/>
<path id="path3828-0-7_1_" inkscape:connector-curvature="0" fill="#754C24" d="M320,26c-22.723,0-41.156,18.434-41.156,41.156
	s18.434,41.125,41.156,41.125s41.156-18.402,41.156-41.125S342.723,26,320,26z M304,51h32v32h-32V51z"/>
<path id="path3828-0-7" inkscape:connector-curvature="0" fill="#FBD74B" stroke="#754C24" stroke-width="1.7143" stroke-linecap="round" d="
	M320,23c-22.723,0-41.156,18.434-41.156,41.156s18.434,41.125,41.156,41.125s41.156-18.402,41.156-41.125S342.723,23,320,23z
	 M304,48h32v32h-32V48z"/>
<g>
	<polygon fill="#157F0B" points="38.882,192 64,141.764 89.118,192 64,242.236 	"/>
	<path fill="#075500" d="M64,144l24,48l-24,48l-24-48L64,144 M64,139.528l-1.789,3.577l-24,48L37.764,192l0.447,0.895l24,48
		L64,244.472l1.789-3.577l24-48L90.236,192l-0.447-0.895l-24-48L64,139.528L64,139.528z"/>
</g>
<g>
	<path id="path3896" inkscape:connector-curvature="0" fill="#25DD13" d="M40,192h24v-48L40,192z"/>
	<path id="use3898" inkscape:connector-curvature="0" fill="#1DAC0F" d="M88,192H64v-48L88,192z"/>
	<path id="use3900" inkscape:connector-curvature="0" fill="#1DAC0F" d="M40,192h24v48L40,192z"/>
	<path id="use3902" inkscape:connector-curvature="0" fill="#157F0B" d="M88,192H64v48L88,192z"/>
</g>
<g>
	<polygon fill="#7F190B" points="166.882,192 192,141.764 217.118,192 192,242.236 	"/>
	<path fill="#550A00" d="M192,144l24,48l-24,48l-24-48L192,144 M192,139.528l-1.789,3.577l-24,48L165.764,192l0.447,0.895l24,48
		l1.789,3.577l1.789-3.577l24-48l0.447-0.895l-0.447-0.895l-24-48L192,139.528L192,139.528z"/>
</g>
<path id="path3896-3" inkscape:connector-curvature="0" fill="#DD2B13" d="M168,192h24v-48L168,192z"/>
<path id="use3898-8" inkscape:connector-curvature="0" fill="#AC210F" d="M216,192h-24v-48L216,192z"/>
<path id="use3900-6" inkscape:connector-curvature="0" fill="#AC210F" d="M168,192h24v48L168,192z"/>
<path id="use3902-6" inkscape:connector-curvature="0" fill="#7F190B" d="M216,192h-24v48L216,192z"/>
<g>
	<polygon fill="#0B427F" points="294.882,192 320,141.764 345.118,192 320,242.236 	"/>
	<path fill="#002855" d="M320,144l24,48l-24,48l-24-48L320,144 M320,139.528l-1.789,3.577l-24,48L293.764,192l0.447,0.895l24,48
		l1.789,3.577l1.789-3.577l24-48l0.447-0.895l-0.447-0.895l-24-48L320,139.528L320,139.528z"/>
</g>
<path id="path3896-3-8" inkscape:connector-curvature="0" fill="#1372DD" d="M296,192h24v-48L296,192z"/>
<path id="use3898-8-0" inkscape:connector-curvature="0" fill="#0F59AC" d="M344,192h-24v-48L344,192z"/>
<path id="use3900-6-9" inkscape:connector-curvature="0" fill="#0F59AC" d="M296,192h24v48L296,192z"/>
<path id="use3902-6-9" inkscape:connector-curvature="0" fill="#0B427F" d="M344,192h-24v48L344,192z"/>
<g>
	<polygon fill="#FFFFFF" points="64,156.518 43.693,192 48.262,192 64,163.931 	"/>
	<polygon fill="#FFFFFF" points="64,169.277 50.996,192 53.921,192 64,174.024 	"/>
</g>
<g>
	<polygon fill="#FFFFFF" points="192,156.518 171.693,192 176.262,192 192,163.931 	"/>
	<polygon fill="#FFFFFF" points="192,169.277 178.996,192 181.921,192 192,174.024 	"/>
</g>
<g>
	<polygon fill="#FFFFFF" points="320,156.518 299.693,192 304.262,192 320,163.931 	"/>
	<polygon fill="#FFFFFF" points="320,169.277 306.996,192 309.922,192 320,174.024 	"/>
</g>
<g>
	<polygon opacity="0.5" points="64,227.482 84.307,192 79.738,192 64,220.069 	"/>
</g>
<g>
	<polygon opacity="0.5" points="320,227.482 340.307,192 335.738,192 320,220.069 	"/>
</g>
<g>
	<polygon opacity="0.5" points="192,227.482 212.307,192 207.738,192 192,220.069 	"/>
</g>
<polygon fill="#3A3A3A" points="192,28.307 194.504,32.886 199.083,35.39 194.504,37.895 192,42.474 189.496,37.895 184.917,35.39 
	189.496,32.886 "/>
<polygon fill="#3A3A3A" points="219.667,57.058 222.17,61.637 226.75,64.141 222.17,66.645 219.667,71.224 217.162,66.645 
	212.583,64.141 217.162,61.637 "/>
<polygon fill="#3A3A3A" points="192,87.058 194.504,91.637 199.083,94.141 194.504,96.645 192,101.224 189.496,96.645 
	184.917,94.141 189.496,91.637 "/>
<polygon fill="#3A3A3A" points="163,57.058 165.504,61.637 170.083,64.141 165.504,66.645 163,71.224 160.496,66.645 
	155.917,64.141 160.496,61.637 "/>
<polygon fill="#5F3A05" points="64.667,27.683 67.171,32.262 71.75,34.766 67.171,37.27 64.667,41.849 62.163,37.27 57.583,34.766 
	62.163,32.262 "/>
<polygon fill="#5F3A05" points="92.333,56.433 94.837,61.012 99.417,63.516 94.837,66.021 92.333,70.6 89.829,66.021 85.25,63.516 
	89.829,61.012 "/>
<polygon fill="#5F3A05" points="64.667,86.433 67.171,91.012 71.75,93.516 67.171,96.021 64.667,100.6 62.163,96.021 57.583,93.516 
	62.163,91.012 "/>
<polygon fill="#5F3A05" points="35.667,56.433 38.171,61.012 42.75,63.516 38.171,66.021 35.667,70.6 33.163,66.021 28.583,63.516 
	33.163,61.012 "/>
<polygon fill="#754C24" points="320.667,27.058 323.171,31.637 327.75,34.141 323.171,36.646 320.667,41.225 318.162,36.646 
	313.584,34.141 318.162,31.637 "/>
<polygon fill="#754C24" points="348.334,55.809 350.838,60.388 355.416,62.892 350.838,65.396 348.334,69.975 345.829,65.396 
	341.25,62.892 345.829,60.388 "/>
<polygon fill="#754C24" points="320.667,85.809 323.171,90.388 327.75,92.892 323.171,95.396 320.667,99.975 318.162,95.396 
	313.584,92.892 318.162,90.388 "/>
<polygon fill="#754C24" points="291.667,55.809 294.171,60.388 298.75,62.892 294.171,65.396 291.667,69.975 289.162,65.396 
	284.584,62.892 289.162,60.388 "/>
</svg>
